<svg xmlns="http://www.w3.org/2000/svg" width="28" height="25" viewBox="0 0 28 25">
  <g id="Path" transform="translate(0)" fill="#fff" stroke-miterlimit="10">
    <path d="M 13.99962329864502 23.12882995605469 L 3.376393795013428 12.48053073883057 C 0.8730937242507935 9.970820426940918 0.8729937076568604 5.887950420379639 3.376293659210205 3.379230499267578 C 4.585513591766357 2.1673903465271 6.196183681488037 1.500000476837158 7.911603927612305 1.500000476837158 C 9.626974105834961 1.500000476837158 11.2374439239502 2.16735053062439 12.44636344909668 3.379130363464355 C 12.58563327789307 3.518720388412476 12.71901416778564 3.665640354156494 12.84282398223877 3.815820455551147 L 13.99832344055176 5.217460632324219 L 15.15608406066895 3.817680358886719 C 15.28327369689941 3.663910388946533 15.41697406768799 3.516570329666138 15.55347347259521 3.379750490188599 C 16.76260375976563 2.168000459671021 18.3732738494873 1.50061047077179 20.08869361877441 1.50061047077179 C 21.80406379699707 1.50061047077179 23.4145336151123 2.167960405349731 24.62345314025879 3.379740476608276 C 27.12725448608398 5.888960361480713 27.12703323364258 9.971420288085938 24.62305450439453 12.48031997680664 L 13.99962329864502 23.12882995605469 Z" stroke="none"/>
    <path d="M 7.911613464355469 2.999992370605469 C 6.597467422485352 2.999992370605469 5.363880157470703 3.510946273803711 4.438091278076172 4.438735961914063 C 2.517646789550781 6.363348007202148 2.517824172973633 9.495724678039551 4.438301086425781 11.42111396789551 L 13.99961948394775 21.00500106811523 L 23.56135749816895 11.42070293426514 C 25.48225784301758 9.496013641357422 25.48243522644043 6.364191055297852 23.56155776977539 4.43914794921875 C 22.63606834411621 3.511491775512695 21.40272331237793 3.000602722167969 20.08870124816895 3.000602722167969 C 18.77455711364746 3.000602722167969 17.54097938537598 3.511558532714844 16.61544609069824 4.439102172851563 C 16.51162338256836 4.543169021606445 16.40952301025391 4.655736923217773 16.31195831298828 4.773691177368164 L 13.99641227722168 7.57330322265625 L 11.68539047241211 4.769947052001953 C 11.59035682678223 4.654668807983398 11.49188995361328 4.546224594116211 11.38446807861328 4.438535690307617 C 10.4589786529541 3.510879516601563 9.225635528564453 2.999992370605469 7.911613464355469 2.999992370605469 M 7.91160774230957 -3.814697265625e-06 C 9.938562393188477 -3.814697265625e-06 11.96544075012207 0.7732353210449219 13.50827884674072 2.319713592529297 C 13.67996788024902 2.491825103759766 13.84375667572021 2.671857833862305 14.00022411346436 2.861658096313477 C 14.15670108795166 2.672470092773438 14.32049083709717 2.491825103759766 14.49157905578613 2.320323944091797 C 16.03471755981445 0.7738475799560547 18.06174468994141 0.0006084442138671875 20.08869934082031 0.0006084442138671875 C 22.11565208435059 0.0006084442138671875 24.14252853393555 0.7738475799560547 25.68536758422852 2.320323944091797 C 28.77164649963379 5.413291931152344 28.77164649963379 10.44698047637939 25.68475723266602 13.53993606567383 L 14.43007946014404 24.82118034362793 C 14.31135749816895 24.9401912689209 14.15548992156982 25.00000190734863 13.99962329864502 25.00000190734863 C 13.84375667572021 25.00000190734863 13.68789005279541 24.9401912689209 13.56915664672852 24.82118034362793 L 2.314479827880859 13.53993606567383 C -0.7711868286132813 10.44636917114258 -0.7717990875244141 5.412679672241211 2.314479827880859 2.319713592529297 C 3.857624053955078 0.7732353210449219 5.884654998779297 -3.814697265625e-06 7.91160774230957 -3.814697265625e-06 Z" stroke="none" fill="#7e9ec9"/>
  </g>
</svg>
