<svg xmlns="http://www.w3.org/2000/svg" xmlns:xlink="http://www.w3.org/1999/xlink" width="46" height="45" viewBox="0 0 46 45">
  <defs>
    <filter id="Rectangle_Copy" x="0" y="0" width="46" height="45" filterUnits="userSpaceOnUse">
      <feOffset input="SourceAlpha"/>
      <feGaussianBlur stdDeviation="2" result="blur"/>
      <feFlood flood-opacity="0.078"/>
      <feComposite operator="in" in2="blur"/>
      <feComposite in="SourceGraphic"/>
    </filter>
  </defs>
  <g id="Group_2" data-name="Group 2" transform="translate(6 6)">
    <g id="Mood_Chart_Icon_Activityfeed_bar">
      <g transform="matrix(1, 0, 0, 1, -6, -6)" filter="url(#Rectangle_Copy)">
        <rect id="Rectangle_Copy-2" data-name="Rectangle Copy" width="34" height="33" rx="16.5" transform="translate(6 6)" fill="#fff"/>
      </g>
    </g>
    <g id="pen_copy" data-name="pen copy" transform="translate(9 10)">
      <path id="Shape" d="M.7,14a.721.721,0,0,1-.54-.238A.621.621,0,0,1,0,13.271l.372-3.124,8.141-7.6,3.751,3.5-8.144,7.6L.78,14A.77.77,0,0,1,.7,14ZM12.931,5.432h0l-3.75-3.5L10.838.384a1.48,1.48,0,0,1,1.989,0l1.761,1.644a1.252,1.252,0,0,1,0,1.857L12.932,5.431Z" fill="#ff6b69"/>
    </g>
  </g>
</svg>
