<?xml version="1.0" encoding="UTF-8"?>
<svg width="42px" height="41px" viewBox="0 0 42 41" version="1.1" xmlns="http://www.w3.org/2000/svg" xmlns:xlink="http://www.w3.org/1999/xlink">
    <!-- Generator: Sketch 62 (91390) - https://sketch.com -->
    <title>Notify_icon_2</title>
    <desc>Created with Sketch.</desc>
    <defs>
        <rect id="path-1" x="0" y="0" width="34" height="33" rx="16.5"></rect>
        <filter x="-17.6%" y="-18.2%" width="135.3%" height="136.4%" filterUnits="objectBoundingBox" id="filter-2">
            <feOffset dx="0" dy="0" in="SourceAlpha" result="shadowOffsetOuter1"></feOffset>
            <feGaussianBlur stdDeviation="2" in="shadowOffsetOuter1" result="shadowBlurOuter1"></feGaussianBlur>
            <feColorMatrix values="0 0 0 0 0   0 0 0 0 0   0 0 0 0 0  0 0 0 0.0794088724 0" type="matrix" in="shadowBlurOuter1"></feColorMatrix>
        </filter>
    </defs>
    <g id="Symbols" stroke="none" stroke-width="1" fill="none" fill-rule="evenodd">
        <g id="Activity-Feed-Title-Bar" transform="translate(-790.000000, -5.000000)">
            <g id="Notify_icon_2" transform="translate(794.000000, 9.000000)">
                <g id="Rectangle">
                    <use fill="black" fill-opacity="1" filter="url(#filter-2)" xlink:href="#path-1"></use>
                    <use fill="#FFFFFF" fill-rule="evenodd" xlink:href="#path-1"></use>
                </g>
                <path d="M23,15 L23,22 L11,22 L11,15 C11,13.3431458 11.6715729,11.8431458 12.7573593,10.7573593 C13.8431458,9.67157288 15.3431458,9 17,9 C18.6568542,9 20.1568542,9.67157288 21.2426407,10.7573593 C22.3284271,11.8431458 23,13.3431458 23,15 Z" id="Rectangle" stroke="#FF6B69" stroke-width="2"></path>
                <path d="M20,24 C20,25.1045695 18.6568542,26 17,26 C15.3431458,26 14,25.1045695 14,24 L14,24 Z" id="Combined-Shape" fill="#FF6B69"></path>
            </g>
        </g>
    </g>
</svg>