<svg xmlns="http://www.w3.org/2000/svg" width="17" height="21.921" viewBox="0 0 17 21.921">
  <g id="file-pdf" transform="translate(0 0)">
    <path id="Shape" d="M14.875,21.921H2.125A2.1,2.1,0,0,1,0,19.859V1.988A1.941,1.941,0,0,1,2.023.009L11.154,0a2.08,2.08,0,0,1,1.507.527l3.714,3.6A2.047,2.047,0,0,1,17,5.593V19.859A2.1,2.1,0,0,1,14.875,21.921ZM2,2V20H15V7.979H10.811C10.219,7.979,9,7.042,9,6.463V2Zm8.981-.007V6.008h4.038ZM4.887,19h0a.839.839,0,0,1-.657-.31A.914.914,0,0,1,4.008,18,5.655,5.655,0,0,0,6,17l-.205.08a6.183,6.183,0,0,0-1.784.905c.178-.892,1.386-1.606,2.278-2.065A35.888,35.888,0,0,0,7.871,12.6a6.411,6.411,0,0,1-.312-3A.909.909,0,0,1,8.471,9a.965.965,0,0,1,.99.868,5.474,5.474,0,0,1-.227,2.442l-.014.059a3.851,3.851,0,0,0,1.643,2.066,10.665,10.665,0,0,1,1.324-.1,2.281,2.281,0,0,1,1.553.386,1.1,1.1,0,0,1,.176,1.141.955.955,0,0,1-.958.587,5.925,5.925,0,0,1-2.492-.759,16.889,16.889,0,0,0-2.509.713l-.547.184C6.255,18.582,5.4,19,4.887,19Zm3.465-6A20.875,20.875,0,0,1,7,16c.21-.081.425-.169.652-.263A13.154,13.154,0,0,1,10,14.947,6.039,6.039,0,0,1,8.352,13Zm3.984,2a1.2,1.2,0,0,0-.336.054c.46.782.707.947.833.947s.143-.133.144-.135a.746.746,0,0,0-.111-.6A.611.611,0,0,0,12.336,15Zm-3.92-5c-.013,0-.025.009-.035.027A1.455,1.455,0,0,0,8.5,11a.962.962,0,0,0,.116-.841A.216.216,0,0,0,8.416,10Z" transform="translate(0 0)" fill="#5978b7"/>
  </g>
</svg>
