<svg id="Group_16" data-name="Group 16" xmlns="http://www.w3.org/2000/svg" xmlns:xlink="http://www.w3.org/1999/xlink" width="20" height="20" viewBox="0 0 20 20">
  <defs>
    <clipPath id="clip-path">
      <circle id="Mask" cx="10" cy="10" r="10" fill="#8aa5dd"/>
    </clipPath>
    <clipPath id="clip-path-2">
      <path id="Clip_2" data-name="Clip 2" d="M0,0H6.364V9.455H0Z" transform="translate(0 0.727)" fill="none"/>
    </clipPath>
  </defs>
  <g id="Group_12" data-name="Group 12">
    <circle id="Mask-2" data-name="Mask" cx="10" cy="10" r="10" fill="#8aa5dd"/>
    <g id="Group_12-2" data-name="Group 12" clip-path="url(#clip-path)">
      <g id="Group_12-3" data-name="Group 12" transform="translate(6.364 2.727)">
        <g id="Group_6" data-name="Group 6">
          <g id="Group_3" data-name="Group 3" transform="translate(0 3.455)">
            <path id="Clip_2-2" data-name="Clip 2" d="M0,0H6.364V9.455H0Z" transform="translate(0 0.727)" fill="none"/>
            <g id="Group_3-2" data-name="Group 3" clip-path="url(#clip-path-2)">
              <path id="Fill_1" data-name="Fill 1" d="M6.157,8.728q-.934.355-1.491.541a4.061,4.061,0,0,1-1.291.185,2.64,2.64,0,0,1-1.759-.531A1.686,1.686,0,0,1,.991,7.576a4.713,4.713,0,0,1,.046-.649c.031-.221.082-.469.149-.748l.78-2.648c.069-.255.128-.5.175-.721a3.073,3.073,0,0,0,.069-.624.935.935,0,0,0-.216-.706,1.264,1.264,0,0,0-.832-.2,2.258,2.258,0,0,0-.619.089c-.21.062-.393.118-.543.173L.206.727Q.972.427,1.671.214A4.471,4.471,0,0,1,2.992,0,2.593,2.593,0,0,1,4.724.521a1.708,1.708,0,0,1,.607,1.356c0,.116-.013.319-.042.609a3.961,3.961,0,0,1-.155.8L4.36,5.926a6.925,6.925,0,0,0-.171.726,3.592,3.592,0,0,0-.076.617.862.862,0,0,0,.246.716,1.408,1.408,0,0,0,.846.191,2.572,2.572,0,0,0,.641-.095,3.784,3.784,0,0,0,.518-.168Z" transform="translate(0 0.727)" fill="#fff"/>
            </g>
          </g>
          <path id="Fill_4" data-name="Fill 4" d="M2.414,2.33a1.387,1.387,0,0,1-1,.4,1.4,1.4,0,0,1-1-.4A1.287,1.287,0,0,1,0,1.367,1.3,1.3,0,0,1,.417.4a1.392,1.392,0,0,1,1-.4,1.376,1.376,0,0,1,1,.4,1.3,1.3,0,0,1,.414.966,1.283,1.283,0,0,1-.414.963" transform="translate(3.535)" fill="#fff"/>
        </g>
      </g>
    </g>
  </g>
</svg>
