<svg id="_161-refresh" data-name="161-refresh" xmlns="http://www.w3.org/2000/svg" width="18" height="18" viewBox="0 0 18 18">
  <path id="Path" d="M8.249,0a8.6,8.6,0,0,0-6.3,2.77V0H0V5.17a.986.986,0,0,0,.971,1H6v-2H3.33A6.69,6.69,0,0,1,8.249,2a6.905,6.905,0,0,1,6.806,7H17A8.878,8.878,0,0,0,8.249,0Z" transform="translate(1)" fill="#fff"/>
  <path id="Path-2" data-name="Path" d="M16.028,2.83H11v2h2.668A6.686,6.686,0,0,1,8.751,7,6.905,6.905,0,0,1,1.945,0H0A8.878,8.878,0,0,0,8.751,9a8.6,8.6,0,0,0,6.3-2.769V9H17V3.83A.986.986,0,0,0,16.028,2.83Z" transform="translate(0 9)" fill="#fff"/>
</svg>
