<svg id="Group_3" data-name="Group 3" xmlns="http://www.w3.org/2000/svg" width="19" height="15" viewBox="0 0 19 15">
  <g id="image_picture-_971_" data-name="image_picture-[#971]">
    <path id="image_picture-_971_2" data-name="image_picture-[#971]" d="M19,15H0V0H19V15ZM13.288,7.569h0L17.1,11.331V1.875H1.9v8.2l5.572-5.5.015.015L7.5,4.571,11.9,8.91l1.358-1.341.015.014.015-.014Zm.091-1.361a1.9,1.9,0,0,1-1.9-1.833,1.872,1.872,0,0,1,.937-1.659,1.921,1.921,0,0,1,1.925,0,1.871,1.871,0,0,1-.962,3.492Z" fill="#fff"/>
  </g>
</svg>
