<svg xmlns="http://www.w3.org/2000/svg" width="25" height="25" viewBox="0 0 25 25">
  <path id="Shape" d="M12.5,25A12.5,12.5,0,0,1,3.661,3.661,12.5,12.5,0,0,1,21.339,21.339,12.418,12.418,0,0,1,12.5,25Zm2.378-12.546c1.4,0,1.4,1.328,1.4,2.3v4.216h2.692v-4.75c0-2.145-.391-4.13-3.23-4.13a2.85,2.85,0,0,0-2.55,1.4h-.037V10.3H10.57v8.666h2.691V14.679C13.261,13.579,13.453,12.454,14.878,12.454ZM6.226,10.28v8.688h2.7l0-8.688ZM7.577,6.033A1.544,1.544,0,1,0,9.122,7.577,1.546,1.546,0,0,0,7.577,6.033Z" transform="translate(0 0)" fill="#819cbf"/>
</svg>
