<svg xmlns="http://www.w3.org/2000/svg" width="25" height="25" viewBox="0 0 25 25">
  <path id="Path" d="M25,12.5A12.5,12.5,0,0,1,8.8,24.441a14.051,14.051,0,0,0,1.552-3.276c.151-.585.776-2.974.776-2.974a3.348,3.348,0,0,0,2.863,1.436c3.77,0,6.487-3.468,6.487-7.777,0-4.128-3.372-7.218-7.707-7.218-5.393,0-8.261,3.619-8.261,7.566,0,1.835.978,4.118,2.535,4.844.237.111.363.06.418-.166.04-.171.252-1.023.348-1.416a.374.374,0,0,0-.086-.358A4.923,4.923,0,0,1,6.8,12.248,5.409,5.409,0,0,1,12.45,6.825a4.935,4.935,0,0,1,5.222,5.086c0,3.382-1.709,5.726-3.931,5.726a1.813,1.813,0,0,1-1.85-2.258,25.117,25.117,0,0,0,1.033-4.163,1.57,1.57,0,0,0-1.583-1.759c-1.255,0-2.263,1.3-2.263,3.034a4.5,4.5,0,0,0,.373,1.855s-1.235,5.232-1.462,6.21a12.1,12.1,0,0,0-.045,3.589A12.5,12.5,0,1,1,25,12.5Z" fill="#819cbf"/>
</svg>
