<svg xmlns="http://www.w3.org/2000/svg" width="25" height="25" viewBox="0 0 25 25">
  <path id="Shape" d="M12.5,25A12.5,12.5,0,0,1,3.661,3.661,12.5,12.5,0,1,1,21.339,21.339,12.418,12.418,0,0,1,12.5,25Zm.045-18.343a48.76,48.76,0,0,0-6.44.349A2.068,2.068,0,0,0,4.647,8.474a21.883,21.883,0,0,0-.344,4,21.9,21.9,0,0,0,.344,3.994A2.025,2.025,0,0,0,6.1,17.907a49.391,49.391,0,0,0,6.44.345,48.753,48.753,0,0,0,6.44-.349,2.025,2.025,0,0,0,1.458-1.444,21.779,21.779,0,0,0,.345-3.99,21.854,21.854,0,0,0-.345-4,2.068,2.068,0,0,0-1.458-1.467A48.753,48.753,0,0,0,12.545,6.657Z" transform="translate(0 0)" fill="#819cbf"/>
</svg>
