<svg xmlns="http://www.w3.org/2000/svg" width="25" height="25" viewBox="0 0 25 25">
  <path id="Shape" d="M12.5,25A12.5,12.5,0,0,1,3.661,3.661,12.5,12.5,0,0,1,21.339,21.339,12.418,12.418,0,0,1,12.5,25ZM12.495,4.1A8.329,8.329,0,0,0,5.279,16.586L4.1,20.9l4.417-1.161A8.33,8.33,0,1,0,12.495,4.1ZM12.5,19.354h-.005a6.906,6.906,0,0,1-3.524-.966l-.252-.153L6.1,18.923l.7-2.552-.163-.263A6.936,6.936,0,1,1,19.5,12.432a6.825,6.825,0,0,1-2.071,4.893A7,7,0,0,1,12.5,19.354ZM9.554,8.572A.755.755,0,0,0,9,8.834l-.038.041a2.293,2.293,0,0,0-.691,1.7,4.023,4.023,0,0,0,.851,2.154l.041.057a8.855,8.855,0,0,0,3.514,3.084,5.176,5.176,0,0,0,2.007.56,3.223,3.223,0,0,0,.488-.041,2.114,2.114,0,0,0,1.4-.987,1.856,1.856,0,0,0,.126-1,.707.707,0,0,0-.288-.188l-.111-.055c-.2-.1-1.232-.609-1.423-.678a.69.69,0,0,0-.223-.053.285.285,0,0,0-.245.159c-.131.2-.523.663-.656.814a.284.284,0,0,1-.223.12.522.522,0,0,1-.229-.068,5.66,5.66,0,0,1-2.831-2.474c-.119-.2-.04-.287.119-.452a2.537,2.537,0,0,0,.49-.682.368.368,0,0,0-.015-.363c-.032-.065-.2-.484-.37-.888-.1-.253-.2-.5-.271-.656-.137-.329-.277-.357-.4-.357H9.953C9.832,8.572,9.69,8.572,9.554,8.572Z" transform="translate(0 0)" fill="#819cbf"/>
</svg>
