<svg xmlns="http://www.w3.org/2000/svg" width="25" height="25" viewBox="0 0 25 25">
  <path id="Shape" d="M12.5,25A12.5,12.5,0,0,1,3.661,3.661,12.5,12.5,0,0,1,21.339,21.339,12.418,12.418,0,0,1,12.5,25Zm.226-20.788c-1.482,0-2.8.022-3.437.058A4.918,4.918,0,0,0,5.8,5.613,4.916,4.916,0,0,0,4.451,9.105c-.078,1.382-.078,5.495,0,6.876A4.9,4.9,0,0,0,5.8,19.474,4.939,4.939,0,0,0,9.289,20.82c.638.036,1.955.059,3.437.059s2.8-.022,3.438-.059a4.9,4.9,0,0,0,3.491-1.346A4.929,4.929,0,0,0,21,15.981c.079-1.38.079-5.491,0-6.872a4.9,4.9,0,0,0-1.346-3.492,4.927,4.927,0,0,0-3.491-1.346C15.526,4.234,14.209,4.212,12.726,4.212Zm1.469,15.172c-.3,0-.6,0-.877-.005-.25,0-.438,0-.592,0l-.513,0h-.066c-.268,0-.557.005-.856.005a11.967,11.967,0,0,1-3.475-.344,2.815,2.815,0,0,1-1.584-1.584,14.994,14.994,0,0,1-.338-4.311c0-.254,0-.444,0-.6s0-.325,0-.517v-.066a15.132,15.132,0,0,1,.338-4.327A2.82,2.82,0,0,1,7.816,6.051a11.716,11.716,0,0,1,3.433-.344c.3,0,.6,0,.883.005.251,0,.44,0,.595,0s.337,0,.585,0h.149c.221,0,.463,0,.713,0a11.924,11.924,0,0,1,3.463.343A2.815,2.815,0,0,1,19.22,7.635a14.99,14.99,0,0,1,.339,4.316c0,.252,0,.441,0,.595s0,.341,0,.592a14.992,14.992,0,0,1-.339,4.318,2.811,2.811,0,0,1-1.584,1.584A11.752,11.752,0,0,1,14.195,19.384ZM12.748,8.243a4.28,4.28,0,1,0,4.28,4.28A4.284,4.284,0,0,0,12.748,8.243Zm4.416-1.132a1,1,0,1,0,1,1A1,1,0,0,0,17.165,7.111Zm-4.416,8.2a2.785,2.785,0,1,1,2.786-2.785A2.788,2.788,0,0,1,12.748,15.308Z" transform="translate(0 0)" fill="#819cbf"/>
</svg>
