<svg xmlns="http://www.w3.org/2000/svg" width="25" height="25" viewBox="0 0 25 25">
  <path id="Shape" d="M12.5,25A12.5,12.5,0,0,1,3.661,3.661,12.5,12.5,0,0,1,21.339,21.339,12.418,12.418,0,0,1,12.5,25ZM5.021,18.179h0a9.445,9.445,0,0,0,5.106,1.49,9.371,9.371,0,0,0,9.463-9.463c0-.142,0-.289-.01-.431a6.936,6.936,0,0,0,1.668-1.724,6.584,6.584,0,0,1-1.917.517,3.309,3.309,0,0,0,1.461-1.831,6.531,6.531,0,0,1-2.11.8,3.336,3.336,0,0,0-5.016.18,3.355,3.355,0,0,0-.659,2.857A9.458,9.458,0,0,1,6.152,7.1,3.264,3.264,0,0,0,5.7,8.778a3.313,3.313,0,0,0,1.48,2.769,3.328,3.328,0,0,1-1.5-.421v.041a3.341,3.341,0,0,0,2.662,3.266,3.392,3.392,0,0,1-.862.112,4.3,4.3,0,0,1-.639-.051A3.33,3.33,0,0,0,9.95,16.8a6.638,6.638,0,0,1-4.128,1.42A6.96,6.96,0,0,1,5.021,18.179Z" transform="translate(0 0)" fill="#819cbf"/>
</svg>
