<?xml version="1.0" encoding="UTF-8"?>
<svg width="18px" height="16px" viewBox="0 0 18 16" version="1.1" xmlns="http://www.w3.org/2000/svg" xmlns:xlink="http://www.w3.org/1999/xlink">
    <!-- Generator: Sketch 61.2 (89653) - https://sketch.com -->
    <title>Feedback</title>
    <desc>Created with Sketch.</desc>
    <defs>
        <polygon id="path-1" points="0 0.025506383 17.9744936 0.025506383 17.9744936 18 0 18"></polygon>
    </defs>
    <g id="Symbols" stroke="none" stroke-width="1" fill="none" fill-rule="evenodd">
        <g id="Library" transform="translate(-53.000000, -400.000000)">
            <g id="Feedback" transform="translate(53.000000, 400.000000)">
                <g id="Group-3">
                    <mask id="mask-2" fill="white">
                        <use xlink:href="#path-1"></use>
                    </mask>
                    <g id="Clip-2"></g>
                    <path d="M1.63317871,-9.20374887e-14 C0.732374456,-9.20374887e-14 0,0.75833617 0,1.6595617 L0,15.5914766 C0,15.7566553 0.0997276596,15.9058255 0.252114894,15.9688638 C0.3024,15.9900043 0.355825532,16 0.408485106,16 C0.514608511,16 0.619123404,15.9585234 0.69732766,15.8803191 L3.05706787,14.0149536 L16.3404383,14.0149536 C17.2412426,14.0149536 18,13.1749682 18,12.2737427 L18,1.6595617 C18,0.75833617 17.2412426,-9.20374887e-14 16.3404383,-9.20374887e-14 L1.63317871,-9.20374887e-14 Z M4,4 L14,4 L14,6 L4,6 L4,4 Z M4,8 L11,8 L11,10 L4,10 L4,8 Z" id="Fill-1" fill="#FFFFFF" mask="url(#mask-2)"></path>
                </g>
            </g>
        </g>
    </g>
</svg>