<?xml version="1.0" encoding="UTF-8"?>
<svg width="19px" height="14px" viewBox="0 0 19 14" version="1.1" xmlns="http://www.w3.org/2000/svg" xmlns:xlink="http://www.w3.org/1999/xlink">
    <!-- Generator: Sketch 61.2 (89653) - https://sketch.com -->
    <title>Mood Chart</title>
    <desc>Created with Sketch.</desc>
    <g id="Symbols" stroke="none" stroke-width="1" fill="none" fill-rule="evenodd">
        <g id="Icons" transform="translate(-20.000000, -181.000000)" fill="#FF6A65" fill-rule="nonzero">
            <path d="M38.4251099,193.001678 C38.6700317,193.001678 39,192.863542 39,193.104167 L39,194.5625 C39,194.803125 38.7996094,195 38.5546875,195 L20.4453125,195 C20.2003906,195 20,194.803125 20,194.5625 L20,181.4375 C20,181.196875 20.2003906,181 20.4453125,181 L21.9296875,181 C22.1746094,181 22.0132751,181.258154 22.0132751,181.498779 L22.0132751,193.001678 L38.4251099,193.001678 Z M34.0880208,184.1926 L31,186.190616 L27.8901042,182.16983 C27.7041667,181.92936 27.325,181.947042 27.1645833,182.205193 L24,187.322236 L24,191 L38,191 L34.7223958,184.358807 C34.6057292,184.128946 34.3067708,184.051147 34.0880208,184.1926 Z" id="Mood-Chart"></path>
        </g>
    </g>
</svg>