<?xml version="1.0" encoding="UTF-8"?>
<svg width="19px" height="14px" viewBox="0 0 19 14" version="1.1" xmlns="http://www.w3.org/2000/svg" xmlns:xlink="http://www.w3.org/1999/xlink">
    <!-- Generator: Sketch 61.2 (89653) - https://sketch.com -->
    <title>Mood Chart</title>
    <desc>Created with Sketch.</desc>
    <g id="Symbols" stroke="none" stroke-width="1" fill="none" fill-rule="evenodd">
        <g id="Library" transform="translate(-52.000000, -348.000000)" fill="#FFFFFF" fill-rule="nonzero">
            <path d="M70.4251099,360.001678 C70.6700317,360.001678 71,359.863542 71,360.104167 L71,361.5625 C71,361.803125 70.7996094,362 70.5546875,362 L52.4453125,362 C52.2003906,362 52,361.803125 52,361.5625 L52,348.4375 C52,348.196875 52.2003906,348 52.4453125,348 L53.9296875,348 C54.1746094,348 54.0132751,348.258154 54.0132751,348.498779 L54.0132751,360.001678 L70.4251099,360.001678 Z M66.0880208,351.1926 L63,353.190616 L59.8901042,349.16983 C59.7041667,348.92936 59.325,348.947042 59.1645833,349.205193 L56,354.322236 L56,358 L70,358 L66.7223958,351.358807 C66.6057292,351.128946 66.3067708,351.051147 66.0880208,351.1926 Z" id="Mood-Chart"></path>
        </g>
    </g>
</svg>