<?xml version="1.0" encoding="UTF-8"?>
<svg width="18px" height="20px" viewBox="0 0 18 20" version="1.1" xmlns="http://www.w3.org/2000/svg" xmlns:xlink="http://www.w3.org/1999/xlink">
    <!-- Generator: Sketch 63 (92445) - https://sketch.com -->
    <title>Patient_on</title>
    <desc>Created with Sketch.</desc>
    <g id="Symbols" stroke="none" stroke-width="1" fill="none" fill-rule="evenodd">
        <g id="Specialist-Cockpit" transform="translate(-52.000000, -186.000000)" fill="#FF6A65" fill-rule="nonzero">
            <g id="Patient_on" transform="translate(52.000000, 186.000000)">
                <g id="doctor">
                    <path d="M9,0 C6.79413691,0 5,1.78149894 5,3.97122419 L5,6.02861323 C5,8.21850106 6.79413691,10 9,10 C11.2060269,10 13,8.21850106 13,6.02861323 L13,3.97122419 C13,1.78149894 11.2060269,0 9,0 Z" id="Path"></path>
                    <path d="M12.1106843,10.0074178 C12.0533496,9.98939625 11.9908281,10.0047787 11.9481801,10.0473995 C10.7946509,11.1937671 9.36128133,12.0881488 9.00293893,12.3041846 C8.62042925,12.0577425 7.0092218,10.999234 6.05136422,10.0473995 C6.00870684,10.0047957 5.94619533,9.98941564 5.88886011,10.0074178 C3.40879733,10.7826942 1.32541126,12.4426089 0.0223782772,14.681587 C-0.00745942572,14.732885 -0.00745942572,14.7964316 0.0223782772,14.8477296 C1.87275845,18.025775 5.31267885,20 8.99977218,20 C12.6870322,20 16.1271193,18.025775 17.9774994,14.8477296 C18.0075002,14.7964162 18.0075002,14.7327325 17.9774994,14.681419 C16.6739664,12.4424409 14.5904137,10.7825262 12.1106843,10.0074178 Z" id="Shape"></path>
                </g>
            </g>
        </g>
    </g>
</svg>