<?xml version="1.0" encoding="UTF-8"?>
<svg width="100px" height="100px" viewBox="0 0 100 100" version="1.1" xmlns="http://www.w3.org/2000/svg" xmlns:xlink="http://www.w3.org/1999/xlink">
    <!-- Generator: Sketch 61.2 (89653) - https://sketch.com -->
    <title>UserPic</title>
    <desc>Created with Sketch.</desc>
    <defs>
        <circle id="path-1" cx="50" cy="50" r="50"></circle>
    </defs>
    <g id="Symbols" stroke="none" stroke-width="1" fill="none" fill-rule="evenodd">
        <g id="Library" transform="translate(-90.000000, 0.000000)">
            <g id="UserPic" transform="translate(90.000000, 0.000000)">
                <mask id="mask-2" fill="white">
                    <use xlink:href="#path-1"></use>
                </mask>
                <use id="Mask" fill="#FFFFFF" xlink:href="#path-1"></use>
                <g id="Group" mask="url(#mask-2)">
                    <g transform="translate(15.000000, 15.000000)">
                        <path d="M44.7548352,52.2384579 C42.7009463,49.2436126 41.4909463,46.3280049 41.5703907,42.6278336 C41.5870574,41.8287618 40.9059463,41.4794468 40.2970574,41.5770988 C40.2253907,41.4933971 40.1431685,41.4136015 40.0365018,41.3455242 C36.938724,39.365143 32.9348352,39.8640049 29.6281685,41.0514524 C29.3598352,41.1479883 29.1876129,41.3711927 29.1103907,41.6222977 C28.7176129,41.6842369 28.3853907,42.0223916 28.5109463,42.5619883 C29.5220574,46.9061043 27.9815018,49.7938115 25.9765018,53.456038 C24.9031685,55.4174468 24.5420574,57.5406789 25.1781685,59.7096678 C26.6403907,64.6932645 31.7698352,66.9816678 36.6326129,66.7076844 C41.3348352,66.4431872 46.0342796,64.0839165 46.7281685,58.9742093 C47.0770574,56.4068004 46.1770574,54.312027 44.7548352,52.2384579" id="Fill-4" fill="#F4E3D6"></path>
                        <path d="M53.4630574,22.198212 C53.724724,19.8673999 53.7902796,17.551654 53.5202796,15.4228419 C52.1013907,4.25592474 37.2691685,5.46401866 29.1358352,5.51926176 C24.2508352,5.55274242 21.3069463,7.96390817 19.9952796,12.6590131 C19.0980574,15.8720408 18.7441685,19.2574938 18.7680574,22.6395988 C17.9919463,22.5023281 17.1725018,22.7612452 16.6069463,23.3694772 C15.7441685,24.2963336 15.7102796,25.7343281 15.8508352,26.9178695 C15.9913907,28.106433 16.4391685,29.36698 17.5202796,30.0070187 C18.1102796,30.3563336 18.7969463,30.4657037 19.414724,30.3038805 C19.4430574,30.4841181 19.4691685,30.6654717 19.4986129,30.8445932 C19.5169463,30.9567535 19.5602796,31.0499413 19.6186129,31.1263888 C20.2313907,34.3131899 21.4141685,37.3403999 23.3719463,40.0160629 C28.4891685,47.0079413 37.9425018,48.96377 44.7291685,43.2117921 C48.3330574,40.1577977 50.4586129,35.8192618 51.6575018,31.3099745 C51.754724,30.9428032 51.8513907,30.5672618 51.9475018,30.1872562 C52.0541685,30.226875 52.1763907,30.2464054 52.314724,30.2391513 C55.8175018,30.0427314 56.4652796,23.0675932 53.4630574,22.198212" id="Fill-7" fill="#F3D1BB"></path>
                        <path d="M60.4330018,11.0505463 C60.4196685,11.0667286 60.4074463,11.0806789 60.3941129,11.0963032 C60.3668907,11.1119275 60.3468907,11.138154 60.3307796,11.1705187 C57.6391129,14.3299772 59.3541129,10.9651706 59.5068907,10.0589607 C59.7513352,8.60478386 59.4518907,7.11489435 59.1546685,5.69531424 C59.1068907,5.46708772 58.8057796,5.54967336 58.7818907,5.74609325 C58.3135574,9.61478386 54.255224,9.925038 51.5685574,8.21138607 C50.5213352,7.54288883 49.3174463,6.60487225 48.3263352,5.75502143 C49.0191129,5.55748551 49.3307796,5.26508772 49.760224,4.59547446 C49.8813352,4.40630872 49.6818907,4.21044684 49.4930018,4.24560154 C46.390224,4.82202695 44.1963352,3.01351314 41.3030018,2.33776176 C39.4407796,1.90307115 37.5757796,1.84782806 35.6963352,2.11846341 C36.0857796,1.46782253 36.1107796,1.01583358 35.9396685,0.17602695 C35.8968907,-0.0337852046 35.5913352,-0.0594537129 35.4924463,0.11743579 C34.4796685,1.92204352 31.3846685,1.08781701 29.7635574,1.14752419 C28.420224,1.19662916 27.0830018,1.37686673 25.8174463,1.84727004 C24.7268907,2.25350209 22.7591129,3.19263468 22.2624463,4.46992198 C21.9357796,3.5369275 21.5930018,2.65136397 21.4268907,1.65643027 C21.3907796,1.44159601 21.105224,1.45387225 21.0041129,1.60118717 C20.0630018,2.96998828 19.5824463,4.71767888 20.040224,6.35265126 C18.2880018,7.22370651 17.0396685,8.42956839 16.0913352,10.1554966 C15.9741129,10.3692148 16.2074463,10.5957673 16.4180018,10.4836071 C16.6507796,10.3597286 18.4980018,9.38544131 18.7335574,10.026038 C18.7880018,10.1739109 17.980224,11.3061153 17.8824463,11.5025352 C17.4291129,12.4120932 17.0841129,13.3757783 16.8068907,14.3528557 C16.2046685,16.4738557 15.9824463,18.6517728 15.8224463,20.8430822 C15.8046685,21.083585 16.1580018,21.1667286 16.2680018,20.9647286 C16.4513352,20.578027 16.690224,20.2409883 16.980224,19.9480325 C16.5546685,21.0322479 16.2891129,22.2297397 16.4841129,23.3859386 C16.4674463,23.4004468 16.4491129,23.4149551 16.4330018,23.4294634 C16.2930018,23.5522258 16.4735574,23.7793363 16.6296685,23.6855905 C17.3135574,23.2726623 18.2524463,22.4931209 18.9180018,23.7296734 C19.0780018,24.0265352 19.0863352,24.5036347 19.1424463,24.8345352 C19.3030018,25.782596 19.3785574,26.7317728 19.4113352,27.6915518 C19.4180018,27.8985739 19.6730018,27.9354026 19.7685574,27.8053861 C20.3046685,27.8996899 20.9974463,28.0788115 21.4057796,27.6597452 C21.8218907,27.2334247 21.6113352,26.0431872 21.5935574,25.5543695 C21.5724463,24.9673419 21.0207796,21.7598944 21.880224,23.9891485 C21.9335574,24.1264192 22.160224,24.163806 22.1963352,23.9891485 C22.5541129,22.2593142 22.6691129,20.4982314 22.5607796,18.7471927 C22.5685574,18.5429607 22.580224,18.3387286 22.5868907,18.1339386 C22.5907796,18.0128502 22.5485574,17.9224524 22.4830018,17.8599551 C22.3963352,17.0391209 22.2657796,16.2227507 22.0813352,15.4141927 C22.4213352,15.8695297 22.6807796,16.3711816 22.8541129,16.9230546 C22.9157796,17.1200325 23.1707796,17.1060822 23.2385574,16.9230546 C23.6874463,15.7082645 23.8841129,14.4538557 23.7674463,13.1832645 C23.8563352,13.2904026 23.9474463,13.3941927 24.0385574,13.4985408 C25.6235574,15.6647397 28.1730018,17.0022921 30.8168907,17.3923419 C31.0091129,17.4208004 31.1713352,17.2081982 31.0163352,17.048049 C30.6685574,16.6881319 30.4263352,16.2936181 30.215224,15.8784579 C30.1624463,15.6379551 30.1207796,15.3968944 30.0846685,15.1569496 C34.8685574,19.518364 41.7846685,21.6879109 48.1391129,20.3994634 C48.3635574,20.3537065 48.3146685,19.9848612 48.0846685,19.9965794 L47.1580018,19.6623308 C48.0168907,19.8481485 48.8941129,19.9357562 49.7691129,19.9391043 C49.8646685,21.3486402 49.785224,22.699585 49.4735574,24.0868004 C49.4185574,24.3334413 49.7085574,24.5108888 49.8957796,24.3334413 C50.0424463,24.1939386 50.1896685,24.0549938 50.3368907,23.915491 C50.3507796,24.6643419 50.1430018,25.3825021 49.8913352,26.1123805 C49.7068907,26.6480711 49.3663352,27.2752756 49.4341129,27.8567231 C49.4674463,28.1446568 49.6385574,28.3940877 49.8563352,28.5352645 C49.8718907,28.5508888 49.8830018,28.5698612 49.9007796,28.5810214 C50.3791129,28.8689551 51.0074463,28.914712 51.5468907,28.9906015 C51.685224,29.0101319 51.8135574,28.9370325 51.8180018,28.7835794 C51.8530018,27.4415629 51.980224,26.1073584 52.215224,24.7843142 C52.2785574,24.4255131 52.2946685,23.762038 52.4868907,23.4545739 C53.375224,22.0327618 53.8946685,22.854712 54.7018907,23.2285794 C54.8107796,23.2793584 54.9441129,23.1420877 54.840224,23.0488999 C54.8313352,23.0416457 54.8241129,23.0366236 54.8163352,23.0293695 C54.8285574,23.0081651 54.845224,22.9897507 54.8457796,22.9624082 C54.8796685,21.7470601 54.7918907,20.2577286 54.3830018,19.1015297 C57.615224,17.8460049 60.1924463,15.2166568 60.7341129,11.4043253 C60.7418907,11.3942811 60.7496685,11.3864689 60.7574463,11.3764247 C60.9396685,11.1487562 60.6257796,10.8217618 60.4330018,11.0505463" id="Fill-10" fill="#683C11"></path>
                        <path d="M68.7763907,87.7050264 C68.5213907,82.3285899 67.9525018,76.9432253 67.2625018,71.6069656 C66.6169463,66.6094187 65.9619463,61.3791811 64.2991685,56.6053966 C64.1813907,56.2672419 63.8841685,56.171822 63.6352796,56.2477115 C63.6025018,56.2320872 63.5686129,56.2170209 63.5308352,56.2064187 C59.6341685,55.0926286 55.6941685,54.1445678 51.7969463,53.0357999 C49.6780574,52.4325899 45.7658352,50.2535568 43.6708352,51.3573026 C43.5769463,51.4064076 43.5269463,51.4800651 43.5063907,51.5604187 C38.934724,55.2851424 31.9152796,56.0512916 27.4163907,51.8851811 C27.4130574,51.881275 27.4102796,51.8773689 27.4069463,51.8734629 C27.239724,51.6513745 27.0702796,51.4320761 26.9130574,51.2027336 C26.7519463,50.9661369 26.5069463,50.9505126 26.3319463,51.0576507 C26.0241685,50.9962695 25.6663907,51.0604408 25.3758352,51.121264 C25.1280574,51.173159 24.8958352,51.2814131 24.6719463,51.4069656 C22.4741685,51.6039435 20.0963907,52.8845789 18.1936129,53.5279656 C14.8052796,54.6735623 11.3919463,55.5607999 7.91750182,56.3933524 C7.73639071,56.4368772 7.62916849,56.5417833 7.5752796,56.6667778 C7.51139071,56.6907723 7.44972404,56.727601 7.39472404,56.7861921 C7.22972404,56.9602916 7.10861293,57.1583855 7.01583516,57.3687557 C5.96805738,58.598612 5.47639071,60.2358165 4.95750182,61.7642087 C4.1052796,64.2747004 3.32083516,66.8175568 2.60972404,69.3721314 C1.24305738,74.2837446 0.314168489,79.252275 0.384168489,84.3670043 C-0.448609289,87.0515955 0.142501822,90.8449546 1.48416849,93.1930651 C3.0002796,95.8458496 5.8902796,97.4769159 8.6902796,98.440601 C16.3113907,101.063811 25.3219463,100.649767 33.2658352,100.784247 C41.7763907,100.928772 50.6119463,101.488457 58.9208352,99.2658993 C63.4525018,98.0544573 72.7213907,94.3068551 68.6713907,88.0699656 C68.7375018,87.9756618 68.7836129,87.8607115 68.7763907,87.7050264 Z" id="Fill-16" fill="#F1ABAB"></path>
                    </g>
                </g>
            </g>
        </g>
    </g>
</svg>